<svg width="16" height="16" viewBox="0 0 16 16" xmlns="http://www.w3.org/2000/svg">
    <!-- Custom extension icon with gear and play button design -->
    <g fill="currentColor">
        <!-- Gear/settings icon base -->
        <path d="M8 1.5a6.5 6.5 0 1 0 0 13 6.5 6.5 0 0 0 0-13zM8 0a8 8 0 1 1 0 16A8 8 0 0 1 8 0z" opacity="0.7"/>
        <!-- Inner gear teeth -->
        <path d="M8 3a5 5 0 1 0 0 10A5 5 0 0 0 8 3zm0 1.5a3.5 3.5 0 1 1 0 7 3.5 3.5 0 0 1 0-7z" opacity="0.5"/>
        <!-- Central action button -->
        <circle cx="8" cy="8" r="2" fill="currentColor"/>
        <!-- Play/action indicator -->
        <path d="M7 6.5l2 1.5-2 1.5V6.5z" fill="white" opacity="0.9"/>
    </g>
</svg>